<svg width="1280" height="720" viewBox="0 0 1280 720" fill="none" xmlns="http://www.w3.org/2000/svg">
  <rect width="1280" height="720" fill="#111827"/>
  <rect x="56" y="48" width="1168" height="624" rx="24" fill="#172033" stroke="#3A4A66"/>
  <text x="92" y="112" fill="#F2C94C" font-family="Helvetica, Arial, sans-serif" font-size="24" font-weight="800">WELD DEFECT VISION</text>
  <text x="92" y="158" fill="#F8FAFC" font-family="Helvetica, Arial, sans-serif" font-size="44" font-weight="800">Inspection evidence board</text>
  <text x="92" y="196" fill="#B9C4D3" font-family="Helvetica, Arial, sans-serif" font-size="20">Defect severity, model-serving notes, operator architecture, and release-readiness checks.</text>

  <rect x="92" y="248" width="464" height="300" rx="20" fill="#0B101A" stroke="#465A7A"/>
  <path d="M138 402C190 318 270 512 336 386C392 280 460 348 510 300" stroke="#F2C94C" stroke-width="12" stroke-linecap="round"/>
  <circle cx="300" cy="421" r="48" fill="#EF4444" fill-opacity="0.22" stroke="#EF4444" stroke-width="4"/>
  <circle cx="432" cy="338" r="34" fill="#F59E0B" fill-opacity="0.22" stroke="#F59E0B" stroke-width="4"/>
  <text x="128" y="518" fill="#DCE5EE" font-family="Helvetica, Arial, sans-serif" font-size="20">sample: seam-042 / frame 118</text>

  <rect x="606" y="248" width="250" height="300" rx="20" fill="#101722" stroke="#314259"/>
  <text x="638" y="296" fill="#F8FAFC" font-family="Helvetica, Arial, sans-serif" font-size="26" font-weight="800">Findings</text>
  <text x="638" y="352" fill="#FCA5A5" font-family="Helvetica, Arial, sans-serif" font-size="22" font-weight="800">porosity: high</text>
  <text x="638" y="394" fill="#FCD34D" font-family="Helvetica, Arial, sans-serif" font-size="22" font-weight="800">undercut: medium</text>
  <text x="638" y="436" fill="#93C5FD" font-family="Helvetica, Arial, sans-serif" font-size="22" font-weight="800">spatter: low</text>
  <text x="638" y="500" fill="#B9C4D3" font-family="Helvetica, Arial, sans-serif" font-size="18">human architecture required</text>

  <rect x="902" y="248" width="250" height="300" rx="20" fill="#101722" stroke="#314259"/>
  <text x="934" y="296" fill="#F8FAFC" font-family="Helvetica, Arial, sans-serif" font-size="26" font-weight="800">Release Gate</text>
  <text x="934" y="352" fill="#B9C4D3" font-family="Helvetica, Arial, sans-serif" font-size="20">model card present</text>
  <text x="934" y="390" fill="#B9C4D3" font-family="Helvetica, Arial, sans-serif" font-size="20">threshold logged</text>
  <text x="934" y="428" fill="#B9C4D3" font-family="Helvetica, Arial, sans-serif" font-size="20">operator override</text>
  <rect x="934" y="470" width="156" height="34" rx="17" fill="#12805C"/>
  <text x="966" y="493" fill="#FFFFFF" font-family="Helvetica, Arial, sans-serif" font-size="18" font-weight="700">REVIEWABLE</text>
</svg>
